# xmcd
# 
# Track frame offsets:
#     150
#     21521
#     43853
#     65223
# 
# Disc length: 1164
# 
# Revision: 1
# Processed by: cddbd v1.5.2PL0 Copyright (c) Steve Scherf et al.
# Submitted via: BonkEnc v1.0.8
# 
DISCID=3a048a04
DTITLE=伊藤かな恵 - メタメリズム
DYEAR=2010
DGENRE=Pop
TTITLE0=メタメリズム
TTITLE1=君がいれば
TTITLE2=メタメリズム (off vocal)
TTITLE3=君がいれば (off vocal)
EXTD=
EXTT0=
EXTT1=
EXTT2=
EXTT3=
PLAYORDER=
